Coordinates
version=1
nRows=9
nColumns=26
inDegrees=yes

Units are S.I. units (second, meters, Newtons, ...)
Angles are in degrees.

endheader
time	pelvis_tilt	pelvis_list	pelvis_rotation	pelvis_tx	pelvis_ty	pelvis_tz	hip_flexion_r	hip_adduction_r	hip_rotation_r	knee_angle_r	knee_angle_r_beta	ankle_angle_r	subtalar_angle_r	mtp_angle_r	hip_flexion_l	hip_adduction_l	hip_rotation_l	knee_angle_l	knee_angle_l_beta	ankle_angle_l	subtalar_angle_l	mtp_angle_l	lumbar_extension	lumbar_bending	lumbar_rotation
      1.46000000	    -21.39244839	      7.93966209	      6.69961508	      1.42806965	      0.96961711	      0.33801595	     -7.60944150	     -9.19091668	    -16.48349939	     15.07671772	      0.26313836	    -35.05621745	      0.00000000	      0.00000000	     57.49189175	      8.86042068	     -5.98811794	     49.21404092	      0.85894705	      6.07704256	      0.00000000	      0.00000000	     15.21777070	    -12.04831398	      8.95639232
      1.46400000	    -21.78251071	      7.99200593	      6.95740210	      1.44488041	      0.97068403	      0.33735039	     -7.86034087	     -9.30577505	    -16.65154441	     15.31108863	      0.26722891	    -35.34569727	      0.00000000	      0.00000000	     57.17864479	      9.40667281	     -5.79824552	     45.76705143	      0.79878574	      5.70352190	      0.00000000	      0.00000000	     15.84186856	    -12.32042650	      9.14305540
      1.46800000	    -21.99443676	      7.92319602	      7.07492112	      1.46144600	      0.97174548	      0.33688094	     -8.20789945	     -9.25355138	    -16.48508617	     15.61305587	      0.27249923	    -35.37960420	      0.00000000	      0.00000000	     56.70116371	      9.75443012	     -5.50230379	     42.42929098	      0.74053083	      5.54999113	      0.00000000	      0.00000000	     16.22700863	    -12.38554183	      9.35816532
      1.47200000	    -22.17029180	      8.05599027	      7.12215150	      1.47819697	      0.97272890	      0.33652087	     -8.52061096	     -9.48462780	    -16.48412433	     16.16243971	      0.28208779	    -35.16476087	      0.00000000	      0.00000000	     56.10516017	     10.11447903	     -5.58992039	     39.01694786	      0.68097420	      5.03793699	      0.00000000	      0.00000000	     16.60347789	    -12.66099573	      9.76026913
      1.47600000	    -22.10770649	      7.97924989	      7.17059604	      1.49477633	      0.97368765	      0.33615162	     -9.05472837	     -9.41139341	    -16.21107803	     16.72057452	      0.29182908	    -34.76721139	      0.00000000	      0.00000000	     55.32512871	     10.32228893	     -5.47577170	     35.82191700	      0.62521040	      4.81212364	      0.00000000	      0.00000000	     16.62854931	    -12.66698557	      9.99797719
      1.48000000	    -21.95711435	      7.79246382	      7.17832581	      1.51130221	      0.97455988	      0.33585908	     -9.62630297	     -9.19516224	    -15.73856366	     17.29428446	      0.30184221	    -34.36162570	      0.00000000	      0.00000000	     54.49460925	     10.41490275	     -5.26729238	     32.77054886	      0.57195398	      4.62963631	      0.00000000	      0.00000000	     16.58689556	    -12.52496842	     10.21301767
      1.48400000	    -21.66087081	      7.49771135	      7.13448877	      1.52780106	      0.97531074	      0.33555928	    -10.27472267	     -8.85360326	    -15.12187099	     17.95194997	      0.31332063	    -33.81455759	      0.00000000	      0.00000000	     53.56231890	     10.37566702	     -4.98590515	     29.92809836	      0.52234386	      4.65971948	      0.00000000	      0.00000000	     16.28654651	    -12.21864049	     10.36778185
      1.48800000	    -21.31278881	      7.15652148	      7.06536142	      1.54422690	      0.97593693	      0.33530744	    -10.89680439	     -8.46491144	    -14.38073926	     18.75732191	      0.32737703	    -33.39395587	      0.00000000	      0.00000000	     52.62620076	     10.25807726	     -4.79700225	     27.27833437	      0.47609675	      4.83415204	      0.00000000	      0.00000000	     15.97296609	    -11.84568063	     10.57529810
      1.49200000	    -20.87621274	      6.73757688	      6.94132332	      1.56056750	      0.97644752	      0.33507359	    -11.49609970	     -8.01011105	    -13.63369659	     19.70151875	      0.34385637	    -32.86279579	      0.00000000	      0.00000000	     51.64973143	     10.02637865	     -4.63583562	     24.83967929	      0.43353419	      5.14399812	      0.00000000	      0.00000000	     15.51170669	    -11.34526996	     10.68091706
